# xmcd
#
# Track frame offsets:
#	150
#	18517
#	34455
#	52390
#	68135
#	82605
#	97660
#	112220
#	130662
#	146345
#	162395
#	181907
#	200290
#	215032
#	233575
#	236177
#	238782
#	241380
#
# Disc length: 3248
#
# Revision: 1
# Processed by: cddbd v1.5.1PL0 Copyright (c) Steve Scherf et al.
# Submitted via: VisiTrax 2.9.5.180 - For more info visit www.synapsa.com
# Normalized: r0:DSETVAR1
#
DISCID=fb0cae12
DTITLE=Various Artist - CDX 145A September 1996
DYEAR=1996
DGENRE=
TTITLE0=James Bonamy - All I do is love her
TTITLE1=Daryle Singletary - Amen kind of love
TTITLE2=Pam Tillis - Batty's got a bass boat
TTITLE3=Thrasher Shiver - Closer
TTITLE4=Helen Darling - Full deck of cards
TTITLE5=Mark Wills - High low and in between
TTITLE6=Lorrie Morgan - I can by my own roses
TTITLE7=Faith Hill - I can't do that anymore
TTITLE8=Iris DeMent - I'll take my sorrow staight
TTITLE9=Tanya Tucker - It hurts like love
TTITLE10=John Mellencamp - Key West intermezzo (I saw you first)
TTITLE11=Mindy McCready/Richie McDonald - Maybe he'll notice her now
TTITLE12=Joe Nichols - Wal-Mart parking lot
TTITLE13=Continental Divide - On the divide tonight
TTITLE14=Faith Hill - PSA
TTITLE15=Faith Hill - PSA
TTITLE16=Faith Hill - PSA
TTITLE17=Faith Hill - PSA
EXTD=
EXTT0=
EXTT1=
EXTT2=
EXTT3=
EXTT4=
EXTT5=
EXTT6=
EXTT7=
EXTT8=
EXTT9=
EXTT10=
EXTT11=
EXTT12=
EXTT13=
EXTT14=
EXTT15=
EXTT16=
EXTT17=
PLAYORDER=
